<svg width="50px" height="50px" viewBox="0 0 50 50">
    <path d="M 20.46875 2.539062 C 10.773438 4.578125 3.554688 12.539062 2.429688 22.453125 C 2.265625 23.9375 2.363281 27.195312 2.617188 28.613281 C 3.054688 31.015625 3.601562 32.703125 4.6875 34.914062 C 5.683594 36.960938 7.402344 39.421875 8.71875 40.703125 C 9.140625 41.113281 9.148438 41.125 9.21875 40.898438 C 9.34375 40.429688 9.394531 39.09375 9.289062 38.476562 C 9.199219 37.960938 9.210938 37.8125 9.328125 37.625 C 9.5625 37.285156 9.902344 37.335938 10.226562 37.765625 C 10.371094 37.96875 10.8125 38.445312 11.179688 38.828125 C 12.304688 39.960938 13.601562 40.460938 15.382812 40.449219 C 15.917969 40.449219 16.5625 40.398438 16.816406 40.351562 C 17.453125 40.226562 17.714844 40.371094 17.753906 40.851562 C 17.78125 41.179688 17.753906 41.230469 17.324219 41.523438 C 16.425781 42.148438 15.75 42.765625 15.351562 43.339844 C 14.929688 43.9375 14.550781 44.726562 14.550781 44.992188 C 14.550781 45.1875 16.335938 46.015625 17.910156 46.53125 C 22.703125 48.144531 27.792969 48.105469 32.609375 46.445312 C 37.460938 44.765625 41.765625 41.308594 44.523438 36.875 C 45.527344 35.265625 46.503906 33.015625 47.0625 31.054688 C 47.363281 29.96875 47.703125 28.328125 47.625 28.261719 C 47.609375 28.234375 47.390625 28.46875 47.167969 28.78125 C 46.523438 29.640625 44.6875 31.425781 43.703125 32.15625 C 40.578125 34.472656 36.828125 35.734375 32.9375 35.773438 L 31.542969 35.789062 L 31.289062 36.28125 C 30.929688 36.960938 30.773438 37.109375 30.460938 37.109375 C 30.109375 37.109375 29.851562 36.757812 29.890625 36.308594 C 29.941406 35.59375 29.960938 35.605469 29.003906 35.421875 C 26.945312 35.03125 24.304688 33.9375 22.558594 32.753906 C 18.09375 29.757812 15.203125 25.226562 14.40625 19.96875 C 14.210938 18.703125 14.210938 15.890625 14.40625 14.628906 C 15.097656 10.046875 17.453125 5.867188 20.898438 3.09375 C 21.296875 2.773438 21.671875 2.46875 21.726562 2.421875 C 21.867188 2.296875 21.425781 2.34375 20.46875 2.539062 Z M 20.46875 2.539062 " />
    <path d="M 29.015625 18.789062 C 28.953125 18.859375 28.835938 19.140625 28.757812 19.40625 C 28.476562 20.351562 27.910156 20.898438 26.894531 21.230469 C 26.53125 21.347656 26.367188 21.453125 26.328125 21.609375 C 26.257812 21.875 26.503906 22.265625 26.738281 22.265625 C 26.835938 22.265625 27.140625 22.382812 27.421875 22.519531 C 28.039062 22.820312 28.46875 23.378906 28.679688 24.160156 C 28.886719 24.875 29.171875 25.109375 29.539062 24.863281 C 29.679688 24.765625 29.824219 24.539062 29.890625 24.296875 C 30.1875 23.171875 30.8125 22.570312 31.828125 22.402344 C 32.285156 22.335938 32.546875 22.078125 32.5 21.765625 C 32.46875 21.523438 32.207031 21.367188 31.5625 21.191406 C 31.335938 21.132812 30.984375 20.945312 30.789062 20.773438 C 30.429688 20.449219 29.980469 19.640625 29.980469 19.289062 C 29.980469 18.78125 29.304688 18.429688 29.015625 18.789062 Z M 29.015625 18.789062 " />
    <path d="M 31.757812 30.175781 C 31.132812 30.78125 30.359375 31.230469 29.589844 31.453125 C 29.34375 31.523438 29.140625 31.582031 29.121094 31.59375 C 29.109375 31.601562 29.277344 31.804688 29.492188 32.039062 C 30 32.597656 30.507812 33.574219 30.710938 34.382812 L 30.867188 35.019531 L 31.476562 34.433594 C 32.117188 33.796875 32.84375 33.390625 33.640625 33.183594 C 33.914062 33.117188 34.148438 33.054688 34.171875 33.039062 C 34.1875 33.027344 33.976562 32.765625 33.691406 32.453125 C 33.117188 31.828125 32.695312 31.007812 32.519531 30.148438 C 32.460938 29.84375 32.402344 29.589844 32.390625 29.589844 C 32.382812 29.601562 32.101562 29.863281 31.757812 30.175781 Z M 31.757812 30.175781 " />
    <path d="M 10.351562 39.726562 C 10.351562 41.035156 9.578125 42.898438 8.585938 43.984375 C 8.273438 44.328125 8.007812 44.628906 8.007812 44.648438 C 8.007812 44.65625 8.367188 44.6875 8.820312 44.695312 C 9.257812 44.71875 9.84375 44.773438 10.109375 44.835938 C 10.890625 45.007812 12.140625 45.65625 12.726562 46.191406 C 13.015625 46.453125 13.28125 46.679688 13.300781 46.679688 C 13.328125 46.679688 13.378906 46.320312 13.40625 45.867188 C 13.507812 44.484375 14.101562 43.171875 15.164062 42.050781 C 15.46875 41.726562 15.722656 41.453125 15.722656 41.445312 C 15.722656 41.4375 15.273438 41.40625 14.726562 41.375 C 13.203125 41.296875 11.875 40.773438 10.820312 39.84375 L 10.351562 39.433594 Z M 10.351562 39.726562 " />
</svg>