<svg width="20px" height="20px" viewBox="0 0 20 20">
    <path d="M 19.136719 6.402344 C 19.214844 6.1875 19.292969 5.902344 19.3125 5.566406 C 19.339844 4.976562 19.195312 4.148438 18.363281 3.394531 C 18.417969 3.011719 18.417969 2.398438 18.078125 1.792969 C 17.628906 0.988281 16.757812 0.445312 15.476562 0.175781 C 14.621094 -0.0078125 13.492188 -0.046875 12.128906 0.0585938 C 9.382812 0.00390625 6.707031 0.34375 6.554688 0.363281 L 5.570312 0.480469 C 5.289062 0.277344 4.941406 0.160156 4.570312 0.160156 L 2.015625 0.160156 C 1.054688 0.160156 0.277344 0.945312 0.277344 1.902344 L 0.277344 8.699219 C 0.277344 9.660156 1.058594 10.4375 2.015625 10.4375 L 4.570312 10.4375 C 4.871094 10.4375 5.148438 10.363281 5.398438 10.230469 C 5.570312 10.613281 5.832031 11.054688 6.214844 11.460938 C 6.238281 11.480469 6.257812 11.5 6.285156 11.519531 C 7.597656 12.527344 9.144531 16.15625 9.691406 17.636719 C 9.636719 18.097656 9.582031 19.09375 10.042969 19.632812 C 10.25 19.871094 10.53125 20 10.851562 20 C 11.171875 20 12.285156 19.925781 12.980469 18.96875 C 13.636719 18.054688 13.675781 16.691406 13.089844 14.910156 C 12.59375 13.414062 12.546875 12.746094 12.566406 12.480469 C 12.792969 12.53125 13.011719 12.574219 13.226562 12.613281 L 13.230469 12.613281 C 13.269531 12.621094 14.1875 12.828125 15.289062 12.878906 C 16.851562 12.953125 17.984375 12.679688 18.648438 12.074219 C 19.558594 11.242188 19.449219 10.179688 19.179688 9.5 C 19.414062 9.195312 19.695312 8.699219 19.722656 8.0625 C 19.738281 7.484375 19.546875 6.929688 19.136719 6.402344 Z M 4.570312 9.3125 L 2.015625 9.3125 C 1.679688 9.3125 1.40625 9.039062 1.40625 8.703125 L 1.40625 1.90625 C 1.40625 1.566406 1.683594 1.296875 2.015625 1.296875 L 4.570312 1.296875 C 4.90625 1.296875 5.179688 1.570312 5.179688 1.90625 L 5.179688 8.703125 C 5.179688 9.042969 4.90625 9.3125 4.570312 9.3125 Z M 18.023438 9.71875 C 18.023438 9.722656 18.171875 9.953125 18.21875 10.265625 C 18.28125 10.65625 18.175781 10.976562 17.882812 11.246094 C 17.082031 11.972656 14.78125 11.804688 13.5 11.523438 C 13.480469 11.519531 13.464844 11.511719 13.445312 11.507812 C 13.214844 11.46875 12.96875 11.417969 12.714844 11.363281 C 12.449219 11.265625 12.082031 11.28125 11.804688 11.527344 C 11.246094 12.019531 11.3125 13.140625 12.007812 15.269531 C 12.46875 16.667969 12.484375 17.71875 12.058594 18.308594 C 11.699219 18.808594 11.105469 18.871094 10.878906 18.875 C 10.78125 18.707031 10.75 18.132812 10.824219 17.660156 C 10.839844 17.570312 10.828125 17.472656 10.800781 17.382812 C 10.722656 17.167969 8.886719 12.140625 7.007812 10.652344 C 6.515625 10.121094 6.304688 9.496094 6.230469 9.21875 C 6.277344 9.054688 6.308594 8.878906 6.308594 8.699219 L 6.308594 1.90625 C 6.308594 1.78125 6.296875 1.65625 6.269531 1.539062 L 6.691406 1.488281 L 6.699219 1.488281 C 6.722656 1.484375 9.445312 1.132812 12.132812 1.191406 C 12.152344 1.191406 12.171875 1.191406 12.191406 1.191406 C 13.460938 1.089844 14.484375 1.121094 15.242188 1.28125 C 16.179688 1.484375 16.796875 1.835938 17.082031 2.332031 C 17.378906 2.847656 17.214844 3.378906 17.203125 3.429688 C 17.117188 3.664062 17.195312 3.917969 17.394531 4.070312 C 18.632812 4.996094 18.066406 6.082031 17.992188 6.214844 C 17.851562 6.433594 17.886719 6.707031 18.066406 6.894531 C 18.425781 7.273438 18.601562 7.648438 18.589844 8.015625 C 18.570312 8.566406 18.148438 8.976562 18.121094 9 C 17.910156 9.179688 17.875 9.484375 18.023438 9.71875 Z M 18.023438 9.71875 "/>
</svg>
