<svg width="20px" height="20px" viewBox="0 0 20 20">
    <path d="M 19.136719 13.597656 C 19.546875 13.074219 19.742188 12.511719 19.71875 11.9375 C 19.695312 11.300781 19.410156 10.804688 19.175781 10.496094 C 19.445312 9.820312 19.550781 8.753906 18.644531 7.925781 C 17.980469 7.320312 16.851562 7.046875 15.285156 7.121094 C 14.183594 7.171875 13.265625 7.378906 13.226562 7.386719 L 13.222656 7.386719 C 13.015625 7.421875 12.792969 7.46875 12.566406 7.519531 C 12.550781 7.253906 12.597656 6.585938 13.089844 5.089844 C 13.675781 3.308594 13.640625 1.945312 12.980469 1.03125 C 12.285156 0.0742188 11.179688 0 10.851562 0 C 10.539062 0 10.25 0.128906 10.046875 0.367188 C 9.582031 0.90625 9.636719 1.902344 9.695312 2.363281 C 9.140625 3.84375 7.59375 7.472656 6.285156 8.480469 C 6.261719 8.5 6.238281 8.519531 6.21875 8.539062 C 5.832031 8.945312 5.574219 9.386719 5.398438 9.769531 C 5.152344 9.636719 4.871094 9.5625 4.570312 9.5625 L 2.019531 9.5625 C 1.058594 9.5625 0.277344 10.34375 0.277344 11.300781 L 0.277344 18.097656 C 0.277344 19.058594 1.0625 19.835938 2.019531 19.835938 L 4.570312 19.835938 C 4.941406 19.835938 5.289062 19.71875 5.574219 19.519531 L 6.558594 19.636719 C 6.707031 19.65625 9.382812 19.996094 12.132812 19.941406 C 12.628906 19.980469 13.097656 20 13.53125 20 C 14.28125 20 14.933594 19.941406 15.476562 19.824219 C 16.757812 19.550781 17.632812 19.007812 18.074219 18.210938 C 18.414062 17.597656 18.414062 16.992188 18.359375 16.609375 C 19.191406 15.855469 19.339844 15.023438 19.308594 14.4375 C 19.292969 14.097656 19.21875 13.808594 19.136719 13.597656 Z M 2.019531 18.707031 C 1.679688 18.707031 1.410156 18.429688 1.410156 18.097656 L 1.410156 11.296875 C 1.410156 10.957031 1.683594 10.6875 2.019531 10.6875 L 4.570312 10.6875 C 4.910156 10.6875 5.179688 10.960938 5.179688 11.296875 L 5.179688 18.09375 C 5.179688 18.429688 4.90625 18.703125 4.570312 18.703125 L 2.019531 18.703125 Z M 18.066406 13.109375 C 17.890625 13.292969 17.859375 13.570312 17.992188 13.789062 C 17.992188 13.792969 18.164062 14.085938 18.183594 14.488281 C 18.214844 15.035156 17.949219 15.519531 17.398438 15.933594 C 17.199219 16.085938 17.121094 16.34375 17.207031 16.578125 C 17.207031 16.582031 17.386719 17.136719 17.09375 17.65625 C 16.8125 18.160156 16.1875 18.519531 15.242188 18.71875 C 14.488281 18.882812 13.457031 18.914062 12.195312 18.8125 C 12.179688 18.8125 12.15625 18.8125 12.136719 18.8125 C 9.445312 18.871094 6.726562 18.519531 6.699219 18.515625 L 6.695312 18.515625 L 6.273438 18.464844 C 6.296875 18.347656 6.308594 18.222656 6.308594 18.097656 L 6.308594 11.296875 C 6.308594 11.117188 6.28125 10.941406 6.230469 10.777344 C 6.304688 10.496094 6.515625 9.875 7.007812 9.34375 C 8.886719 7.855469 10.722656 2.832031 10.800781 2.613281 C 10.835938 2.527344 10.84375 2.429688 10.828125 2.332031 C 10.757812 1.867188 10.78125 1.292969 10.882812 1.121094 C 11.101562 1.125 11.699219 1.1875 12.0625 1.683594 C 12.488281 2.273438 12.472656 3.328125 12.011719 4.726562 C 11.308594 6.855469 11.25 7.976562 11.804688 8.46875 C 12.082031 8.714844 12.449219 8.730469 12.71875 8.632812 C 12.972656 8.574219 13.214844 8.523438 13.445312 8.484375 C 13.460938 8.480469 13.484375 8.476562 13.5 8.472656 C 14.785156 8.191406 17.082031 8.023438 17.882812 8.75 C 18.558594 9.367188 18.078125 10.1875 18.023438 10.277344 C 17.871094 10.511719 17.917969 10.816406 18.125 11.003906 C 18.128906 11.007812 18.570312 11.421875 18.589844 11.976562 C 18.605469 12.351562 18.429688 12.730469 18.066406 13.109375 Z M 18.066406 13.109375 " />
</svg>